<?xml version="1.0" encoding="utf-8"?>
<!-- Generator: Adobe Illustrator 15.1.0, SVG Export Plug-In  -->
<!DOCTYPE svg PUBLIC "-//W3C//DTD SVG 1.1//EN" "http://www.w3.org/Graphics/SVG/1.1/DTD/svg11.dtd" [
	<!ENTITY ns_flows "http://ns.adobe.com/Flows/1.0/">
]>
<svg version="1.1"
	 xmlns="http://www.w3.org/2000/svg" xmlns:xlink="http://www.w3.org/1999/xlink" xmlns:a="http://ns.adobe.com/AdobeSVGViewerExtensions/3.0/"
	 x="0px" y="0px" width="792px" height="612px" viewBox="-58.507 -4.964 792 612" enable-background="new -58.507 -4.964 792 612"
	 xml:space="preserve">
<defs>
</defs>
<g>
	<path fill="#13232B" d="M327.094,571.207c-51.068-23.867-93.798-56.563-127.003-97.181c-26.583-32.518-47.055-70.05-60.844-111.554
		c-22-66.215-19.837-121.118-19.352-129.459V104.695l24.555,0.402c1.659,0.027,3.3,0.041,4.938,0.041c0.007,0,0.014,0,0.021,0
		c55.073-0.001,98.73-15.416,125.657-28.347c29.51-14.171,46.079-28.592,46.243-28.736l16.202-14.449l15.893,14.51
		c0.098,0.085,16.665,14.507,46.173,28.679c26.925,12.931,70.581,28.345,125.659,28.343c1.64,0,3.302-0.014,4.961-0.041
		l24.556-0.402v128.32c0.486,8.347,2.646,63.247-19.353,129.458c-13.79,41.504-34.261,79.036-60.845,111.555
		c-33.205,40.617-75.936,73.313-127.004,97.18l-10.229,4.78L327.094,571.207z"/>
	<path fill="#13232B" d="M337.323,66.145c0,0,70.8,63.152,187.915,63.152c1.771,0,3.564-0.015,5.356-0.044v104.524
		c0,0,16.104,217.692-193.271,315.542C127.949,451.47,144.054,233.778,144.054,233.778V129.253c1.799,0.029,3.579,0.044,5.356,0.044
		C266.512,129.297,337.323,66.145,337.323,66.145 M336.777,0L305.26,29.993c-1.773,1.486-16.77,13.762-42.248,25.782
		C227.561,72.5,189.34,80.98,149.41,80.98c-1.509,0-3.044-0.013-4.565-0.038l-49.108-0.804v49.115v103.178
		c-0.6,12.026-2.018,69.63,20.584,137.658c14.721,44.308,36.613,84.422,65.067,119.228c35.518,43.447,81.1,78.362,135.479,103.776
		l20.457,9.561l20.458-9.561c54.379-25.414,99.961-60.329,135.479-103.776c28.454-34.806,50.346-74.92,65.067-119.228
		c22.602-68.028,21.184-125.632,20.584-137.658V129.253V80.135L529.8,80.942c-1.513,0.025-3.048,0.038-4.563,0.038
		c-39.934,0-78.156-8.48-113.605-25.204c-25.65-12.101-40.675-24.461-42.278-25.81L336.777,0L336.777,0z"/>
</g>
<g>
	<defs>
		<rect id="SVGID_5_" x="337.279" y="3.036" width="337.28" height="558.119"/>
	</defs>
	<clipPath id="SVGID_6_">
		<use xlink:href="#SVGID_5_"  overflow="visible"/>
	</clipPath>
	<g clip-path="url(#SVGID_6_)">
		<path d="M534.029,229.896V123.493C411.563,125.5,337.282,59.249,337.282,59.249s-74.283,66.251-196.747,64.244v106.404
			c0,0-16.393,221.607,196.747,321.217C550.422,451.504,534.029,229.896,534.029,229.896z"/>
	</g>
</g>
<g>
	<defs>
		<rect id="SVGID_4_" y="3.036" width="337.279" height="558.119"/>
	</defs>
	<clipPath id="SVGID_7_">
		<use xlink:href="#SVGID_4_"  overflow="visible"/>
	</clipPath>
	<g clip-path="url(#SVGID_7_)">
		<path fill="#58595B" d="M140.531,229.896V123.493c122.464,2.008,196.746-64.244,196.746-64.244s74.282,66.251,196.748,64.244
			v106.404c0,0,16.392,221.607-196.748,321.217C124.137,451.504,140.531,229.896,140.531,229.896z"/>
	</g>
</g>
<g>
	<defs>
		<path id="SVGID_3_" d="M530.594,233.778V129.253c-120.3,1.973-193.271-63.108-193.271-63.108s-72.968,65.081-193.269,63.108
			v104.524c0,0-16.104,217.692,193.269,315.542C546.698,451.47,530.594,233.778,530.594,233.778z"/>
	</defs>
	<clipPath id="SVGID_8_">
		<use xlink:href="#SVGID_3_"  overflow="visible"/>
	</clipPath>
	<g opacity="0.05" clip-path="url(#SVGID_8_)">
		<text transform="matrix(1 0 0 1 116.9019 174.0112)"><tspan x="0" y="0" fill="#FFFFFF" font-family="'AgencyFB-Bold'" font-size="66.9677">1010101010101010101</tspan><tspan x="-15.729" y="70.997" fill="#FFFFFF" font-family="'AgencyFB-Bold'" font-size="66.9677">111010101010101010101</tspan><tspan x="0" y="141.995" fill="#FFFFFF" font-family="'AgencyFB-Bold'" font-size="66.9677">1010101010101010101</tspan><tspan x="0" y="212.992" fill="#FFFFFF" font-family="'AgencyFB-Bold'" font-size="66.9677">1010101010101010101</tspan><tspan x="0" y="283.989" fill="#FFFFFF" font-family="'AgencyFB-Bold'" font-size="66.9677">1010101010101010101</tspan><tspan x="0" y="354.987" fill="#FFFFFF" font-family="'AgencyFB-Bold'" font-size="66.9677">1010101010101010101</tspan></text>
	</g>
</g>
<g>
	<path fill="#12232A" d="M337.323,66.145c0,0,70.801,63.152,187.915,63.152c1.771,0,3.564-0.015,5.356-0.044v104.524
		c0,0,16.104,217.692-193.271,315.542C127.949,451.47,144.054,233.778,144.054,233.778V129.253c1.797,0.029,3.58,0.044,5.356,0.044
		c48.483,0,89.033-10.826,119.905-23.512c8.641-3.551,14.26-10.72,21.347-14.366c7.249-3.729,15.928-3.933,21.47-7.346
		C328.57,73.951,337.323,66.145,337.323,66.145 M337.322,62.184l-1.968,1.753c-0.133,0.118-8.835,7.803-24.774,17.618
		c-2.421,1.491-5.821,2.342-9.421,3.244c-3.737,0.936-7.973,1.997-11.851,3.991c-3.367,1.732-6.4,4.174-9.334,6.535
		c-3.598,2.896-7.319,5.891-11.784,7.725c-37.606,15.454-77.57,23.29-118.78,23.29c-1.76,0-3.546-0.015-5.308-0.044l-3.006-0.049
		v3.007v104.426c-0.189,2.917-3.311,57.154,18.27,122.109c12.972,39.043,32.196,74.31,57.139,104.82
		C247.68,498.743,287.908,529.491,336.07,552l1.252,0.586l1.252-0.586c48.163-22.509,88.392-53.257,119.566-91.392
		c24.943-30.511,44.168-65.777,57.14-104.82c21.581-64.955,18.46-119.191,18.271-122.109V129.253v-3.007l-3.007,0.049
		c-1.76,0.029-3.546,0.044-5.308,0.044c-59.829,0-107.183-16.954-136.371-31.176c-31.669-15.431-49.4-31.07-49.575-31.227
		L337.322,62.184L337.322,62.184z"/>
</g>
<linearGradient id="SVGID_9_" gradientUnits="userSpaceOnUse" x1="337.3247" y1="595.0361" x2="337.3247" y2="10.3276">
	<stop  offset="0" style="stop-color:#F4AF80"/>
	<stop  offset="0.0412" style="stop-color:#F1A16C"/>
	<stop  offset="0.1035" style="stop-color:#EE9054"/>
	<stop  offset="0.1716" style="stop-color:#EC833F"/>
	<stop  offset="0.2465" style="stop-color:#EA7930"/>
	<stop  offset="0.332" style="stop-color:#E97225"/>
	<stop  offset="0.4369" style="stop-color:#E96E21"/>
	<stop  offset="0.6182" style="stop-color:#E86D1F"/>
</linearGradient>
<path fill="url(#SVGID_9_)" d="M337.323,66.145c0,0,70.801,63.152,187.917,63.152c1.771,0,3.563-0.013,5.354-0.044v104.524
	c0,0,16.104,217.692-193.271,315.542C127.949,451.47,144.054,233.778,144.054,233.778V129.253c1.797,0.031,3.577,0.044,5.355,0.044
	c49.626,0,90.939-11.342,122.073-24.413c7.761-3.258,12.098-10.96,18.565-14.285c10.728-5.515,22.427-6.58,29.382-11.186
	C331.147,71.652,337.323,66.145,337.323,66.145 M336.964,10.327l-27.109,24.821c-1.403,1.187-16.85,14.043-43.416,26.641
	c-36.509,17.314-75.883,26.093-117.03,26.093c-1.549,0-3.122-0.013-4.678-0.038l-42.092-0.688v42.097v103.331
	c-0.574,11.052-2.183,67.864,20.231,135.329c14.456,43.509,35.941,82.885,63.862,117.036
	c34.856,42.639,79.624,76.919,133.057,101.892l17.534,8.195l17.537-8.195c53.433-24.973,98.2-59.253,133.057-101.892
	c27.919-34.151,49.406-73.527,63.861-117.036c22.415-67.465,20.808-124.277,20.232-135.329V129.253V87.153l-42.096,0.691
	c-1.548,0.025-3.121,0.038-4.675,0.038c-52.588,0-94.122-14.888-119.706-27.377c-26.036-12.711-40.506-25.146-40.64-25.267
	L336.964,10.327L336.964,10.327z"/>
<line fill="none" stroke="#13232B" stroke-width="5.8366" stroke-linecap="square" stroke-miterlimit="10" x1="336.493" y1="563.795" x2="329.279" y2="578.869"/>
<path fill="none" stroke="#13232B" stroke-width="5.8366" stroke-linecap="square" stroke-miterlimit="10" d="M308.195,548.905
	c5.853,3.373,11.788,6.611,17.806,9.69l-7.625,14.874"/>
<path fill="none" stroke="#13232B" stroke-width="5.8366" stroke-linecap="square" stroke-miterlimit="10" d="M307.156,567.502
	c-18.178-10.008-35.646-21.382-52.072-34.149l10.254-13.195"/>
<line fill="none" stroke="#13232B" stroke-width="5.8366" stroke-linecap="square" stroke-miterlimit="10" x1="279.096" y1="530.336" x2="269.473" y2="543.998"/>
<line fill="none" stroke="#13232B" stroke-width="5.8366" stroke-linecap="square" stroke-miterlimit="10" x1="292.664" y1="539.456" x2="285.361" y2="550.847"/>
<path fill="none" stroke="#13232B" stroke-width="5.8366" stroke-linecap="square" stroke-miterlimit="10" d="M243.899,524.313
	c-6.232-5.239-12.295-10.686-18.166-16.334l11.587-12.044c5.597,5.385,11.383,10.582,17.333,15.587l-5.421,6.446"/>
<path fill="none" stroke="#13232B" stroke-width="5.8366" stroke-linecap="square" stroke-miterlimit="10" d="M216.5,498.771
	c-5.663-5.859-11.127-11.913-16.378-18.145l12.784-10.767c5.004,5.939,10.212,11.709,15.61,17.295"/>
<path fill="none" stroke="#13232B" stroke-width="5.8366" stroke-linecap="square" stroke-miterlimit="10" d="M153.802,410.234
	c3.656,7.276,7.554,14.43,11.689,21.448l14.4-8.482c-3.944-6.696-7.666-13.524-11.156-20.473"/>
<path fill="none" stroke="#13232B" stroke-width="5.8366" stroke-linecap="square" stroke-miterlimit="10" d="M194.434,473.697
	c-7.919-9.899-15.308-20.222-22.128-30.907l14.086-8.993c3.436,5.385,7.024,10.672,10.759,15.853l-13.559,9.771"/>
<path fill="none" stroke="#13232B" stroke-width="5.8366" stroke-linecap="square" stroke-miterlimit="10" d="M149.835,357.846
	l-1.511-4.456l-15.862,5.262c2.104,6.346,4.369,12.638,6.797,18.87l15.574-6.066"/>
<path fill="none" stroke="#13232B" stroke-width="5.8366" stroke-linecap="square" stroke-miterlimit="10" d="M162.905,390.567
	c-3.583-7.853-6.888-15.836-9.911-23.929"/>
<path fill="none" stroke="#13232B" stroke-width="5.8366" stroke-linecap="square" stroke-miterlimit="10" d="M141.784,331.515
	c1.116,4.178,2.302,8.334,3.556,12.472l-15.994,4.851c-2.303-7.595-4.382-15.254-6.236-22.966l16.25-3.907
	c-1.012-4.208-1.953-8.437-2.828-12.68l-16.371,3.372"/>
<path fill="none" stroke="#13232B" stroke-width="5.8366" stroke-linecap="square" stroke-miterlimit="10" d="M147.703,397.507
	c-1.69-3.701-3.319-7.434-4.89-11.184"/>
<path fill="none" stroke="#13232B" stroke-width="5.8366" stroke-linecap="square" stroke-miterlimit="10" d="M134.3,297.545
	l-16.466,2.875c-1.707-9.779-3.066-19.62-4.06-29.506l16.633-1.671C131.357,278.716,132.661,288.162,134.3,297.545z"/>
<path fill="none" stroke="#13232B" stroke-width="5.8366" stroke-linecap="square" stroke-miterlimit="10" d="M129.086,252.154
	c0.148,2.769,0.329,5.535,0.541,8.303l-16.665,1.277c-0.635-8.343-1.015-16.708-1.052-25.129c-0.011-4.229,0.044-8.406,0.282-12.784
	l0.038-0.619l0.002-0.436v-1.536v-3.069v-6.138h16.714"/>
<line fill="none" stroke="#13232B" stroke-width="5.8366" stroke-linecap="square" stroke-miterlimit="10" x1="129.086" y1="252.154" x2="129.086" y2="252.154"/>
<line fill="none" stroke="#13232B" stroke-width="5.8366" stroke-linecap="square" stroke-miterlimit="10" x1="128.796" y1="226.449" x2="128.796" y2="226.449"/>
<polyline fill="none" stroke="#13232B" stroke-width="5.8366" stroke-linecap="square" stroke-miterlimit="10" points="
	128.946,111.361 128.946,133.407 112.232,133.407 112.232,111.361 "/>
<rect x="112.232" y="145.609" fill="none" stroke="#13232B" stroke-width="5.8366" stroke-linecap="square" stroke-miterlimit="10" width="16.714" height="54.093"/>
<path fill="none" stroke="#13232B" stroke-width="5.8366" stroke-linecap="square" stroke-miterlimit="10" d="M111.934,239.353
	l9.949-0.132c-0.032-2.429-0.035-4.858-0.002-7.286l6.765,0.092"/>
<path fill="none" stroke="#13232B" stroke-width="5.8366" stroke-linecap="square" stroke-miterlimit="10" d="M210.816,88.926
	c-7.55,1.841-15.168,3.418-22.826,4.754l2.862,16.465c8.023-1.398,16.001-3.051,23.913-4.979"/>
<path fill="none" stroke="#13232B" stroke-width="5.8366" stroke-linecap="square" stroke-miterlimit="10" d="M139.561,98.715
	c12.092-0.429,24.159-1.469,36.141-3.119l2.284,16.556c-6.632,0.92-13.289,1.644-19.958,2.207l-1.389-16.655"/>
<path fill="none" stroke="#13232B" stroke-width="5.8366" stroke-linecap="square" stroke-miterlimit="10" d="M263.336,89.707
	l4.563-1.849l-6.381-15.447c-5.903,2.441-11.878,4.714-17.909,6.823l5.515,15.777"/>
<path fill="none" stroke="#13232B" stroke-width="5.8366" stroke-linecap="square" stroke-miterlimit="10" d="M228.423,101.566
	c8.691-2.474,17.296-5.261,25.781-8.374"/>
<path fill="none" stroke="#13232B" stroke-width="5.8366" stroke-linecap="square" stroke-miterlimit="10" d="M223.851,85.491
	c3.739-1.061,7.458-2.19,11.159-3.376"/>
<path fill="none" stroke="#13232B" stroke-width="5.8366" stroke-linecap="square" stroke-miterlimit="10" d="M420.534,73.996
	c-7.218-2.877-14.338-5.998-21.338-9.361L391.96,79.7c7.35,3.53,14.813,6.804,22.382,9.82"/>
<path fill="none" stroke="#13232B" stroke-width="5.8366" stroke-linecap="square" stroke-miterlimit="10" d="M462.891,105.047
	l4.787,1.137l3.754-16.286c-6.227-1.436-12.416-3.041-18.555-4.814l-4.642,16.055"/>
<path fill="none" stroke="#13232B" stroke-width="5.8366" stroke-linecap="square" stroke-miterlimit="10" d="M427.562,94.497
	c8.52,3.017,17.15,5.723,25.87,8.102"/>
<path fill="none" stroke="#13232B" stroke-width="5.8366" stroke-linecap="square" stroke-miterlimit="10" d="M491.098,110.789
	c-4.459-0.728-8.903-1.54-13.335-2.429l3.297-16.385c7.44,1.495,14.932,2.75,22.454,3.765l-2.233,16.563
	c4.483,0.605,8.977,1.13,13.479,1.567l1.626-16.633"/>
<path fill="none" stroke="#13232B" stroke-width="5.8366" stroke-linecap="square" stroke-miterlimit="10" d="M433.145,78.745
	c3.663,1.301,7.35,2.531,11.052,3.71"/>
<path fill="none" stroke="#13232B" stroke-width="5.8366" stroke-linecap="square" stroke-miterlimit="10" d="M527.199,114.878
	l1.072-16.679c9.487,0.612,18.999,0.84,28.512,0.705l0.239,16.714C547.08,115.759,537.129,115.52,527.199,114.878z"/>
<line fill="none" stroke="#13232B" stroke-width="5.8366" stroke-linecap="square" stroke-miterlimit="10" x1="574.569" y1="115.337" x2="574.569" y2="115.337"/>
<polyline fill="none" stroke="#13232B" stroke-width="5.8366" stroke-linecap="square" stroke-miterlimit="10" points="
	545.232,150.212 545.13,129.521 561.844,129.438 "/>
<polyline fill="none" stroke="#13232B" stroke-width="5.8366" stroke-linecap="square" stroke-miterlimit="10" points="
	561.905,141.898 562.206,202.921 545.494,203.004 "/>
<line fill="none" stroke="#13232B" stroke-width="5.8366" stroke-linecap="square" stroke-miterlimit="10" x1="545.407" y1="185.495" x2="562.12" y2="185.412"/>
<line fill="none" stroke="#13232B" stroke-width="5.8366" stroke-linecap="square" stroke-miterlimit="10" x1="545.324" y1="168.782" x2="558.854" y2="168.715"/>
<path fill="none" stroke="#13232B" stroke-width="5.8366" stroke-linecap="square" stroke-miterlimit="10" d="M562.275,216.981
	l0.015,2.984l0.006,0.745v0.187v0.006c-0.013-0.278,0.026,0.629-0.029-0.62l0.003,0.014l0.002,0.027l0.004,0.055l0.008,0.116
	l0.032,0.451l0.093,1.605c0.107,2.105,0.174,4.167,0.219,6.228c0.082,4.115,0.069,8.204-0.02,12.286l-16.71-0.357
	c0.083-3.875,0.097-7.747,0.018-11.587c-0.038-1.917-0.101-3.833-0.197-5.703l-0.08-1.372l-0.021-0.294l-0.035-0.772v-0.188
	l-0.005-0.746l-0.015-2.985l8.423-0.043"/>
<path fill="none" stroke="#13232B" stroke-width="5.8366" stroke-linecap="square" stroke-miterlimit="10" d="M562.083,254.1
	c-0.473,8.126-1.206,16.224-2.181,24.29l-16.593-2.001c0.934-7.735,1.638-15.496,2.09-23.26"/>
<path fill="none" stroke="#13232B" stroke-width="5.8366" stroke-linecap="square" stroke-miterlimit="10" d="M541.34,360.396
	c2.609-7.703,4.977-15.48,7.11-23.322l-16.129-4.387c-2.045,7.518-4.313,14.972-6.812,22.347"/>
<path fill="none" stroke="#13232B" stroke-width="5.8366" stroke-linecap="square" stroke-miterlimit="10" d="M558.736,287.249
	c-1.789,12.511-4.149,24.935-7.074,37.229l-16.259-3.872c1.482-6.231,2.816-12.504,3.994-18.803l16.428,3.077"/>
<path fill="none" stroke="#13232B" stroke-width="5.8366" stroke-linecap="square" stroke-miterlimit="10" d="M506.89,400.033
	l-2.112,4.197l14.881,7.612c3.048-5.964,5.937-12.004,8.657-18.116l-15.266-6.802"/>
<path fill="none" stroke="#13232B" stroke-width="5.8366" stroke-linecap="square" stroke-miterlimit="10" d="M520.951,367.74
	c-3.062,8.077-6.408,16.041-10.032,23.875"/>
<path fill="none" stroke="#13232B" stroke-width="5.8366" stroke-linecap="square" stroke-miterlimit="10" d="M493.751,424.163
	c2.209-3.702,4.348-7.447,6.422-11.229l14.659,8.022c-3.817,6.976-7.865,13.827-12.132,20.543l-14.103-8.971
	c-2.316,3.642-4.701,7.241-7.154,10.793l13.753,9.493"/>
<path fill="none" stroke="#13232B" stroke-width="5.8366" stroke-linecap="square" stroke-miterlimit="10" d="M536.576,373.668
	c-1.44,3.802-2.943,7.581-4.505,11.337"/>
<path fill="none" stroke="#13232B" stroke-width="5.8366" stroke-linecap="square" stroke-miterlimit="10" d="M474.503,453.001
	l13.412,9.973c-5.943,7.994-12.223,15.739-18.816,23.204l-12.531-11.064C462.854,467.999,468.838,460.619,474.503,453.001z"/>
<path fill="none" stroke="#13232B" stroke-width="5.8366" stroke-linecap="square" stroke-miterlimit="10" d="M444.921,487.652
	c1.938-1.982,3.85-3.986,5.739-6.016l12.235,11.384c-11.415,12.272-23.694,23.731-36.681,34.302l-10.554-12.964"/>
<line fill="none" stroke="#13232B" stroke-width="5.8366" stroke-linecap="square" stroke-miterlimit="10" x1="444.921" y1="487.652" x2="444.921" y2="487.652"/>
<line fill="none" stroke="#13232B" stroke-width="5.8366" stroke-linecap="square" stroke-miterlimit="10" x1="426.151" y1="505.475" x2="426.151" y2="505.475"/>
<path fill="none" stroke="#13232B" stroke-width="5.8366" stroke-linecap="square" stroke-miterlimit="10" d="M336.719,563.168
	c6.608-3.055,8.306-3.359,14.703-6.71l7.747,14.808c-6.622,3.474-13.397,6.782-20.129,9.896"/>
<path fill="none" stroke="#13232B" stroke-width="5.8366" stroke-linecap="square" stroke-miterlimit="10" d="M406.197,521.806
	l10.112,13.308c-14.679,11.157-30.153,21.225-46.196,30.226l-8.179-14.578C377.34,542.116,392.164,532.471,406.197,521.806z"/>
<path fill="none" stroke="#13232B" stroke-width="5.8366" stroke-linecap="square" stroke-miterlimit="10" d="M447.134,508.935
	l-6.848-7.216c-1.764,1.671-3.544,3.329-5.342,4.968l-4.557-5.005"/>
<g>
	<path fill="#BCBEC0" d="M166.245,233.561v-93.176c-3.081,0.05-6.197,0.055-9.354,0v97.314c0,0-14.396,202.674,172.777,293.773
		c-4.118-3.592-4.816-4.717-6.911-5.885C148.474,428.402,166.245,233.561,166.245,233.561z"/>
</g>
<g>
	<path fill="#A7A9AC" d="M508.397,233.561v-93.176c3.084,0.05,6.201,0.055,9.354,0v97.314c0,0,14.397,202.674-172.775,293.773
		c4.116-3.592,4.814-4.717,6.911-5.885C526.172,428.402,508.397,233.561,508.397,233.561z"/>
</g>
<g>
	<defs>
		<rect id="SVGID_2_" x="171.774" y="293.177" width="164.121" height="136.066"/>
	</defs>
	<clipPath id="SVGID_10_">
		<use xlink:href="#SVGID_2_"  overflow="visible"/>
	</clipPath>
	<g clip-path="url(#SVGID_10_)">
		<path fill="#FFFFFF" d="M496.061,453.676c0,0-260.837-120.44-285.728-131.94c-14.77-6.817-21.512-2.049-24.554,2.96
			l304.844,140.758L496.061,453.676z"/>
		<path fill="#BFC1C6" d="M183.353,331.674l304.187,140.462l3.084-6.683L185.779,324.695
			C183.699,328.128,183.353,331.674,183.353,331.674z"/>
	</g>
</g>
<g>
	<defs>
		<rect id="SVGID_1_" x="335.895" y="293.177" width="164.116" height="136.066"/>
	</defs>
	<clipPath id="SVGID_11_">
		<use xlink:href="#SVGID_1_"  overflow="visible"/>
	</clipPath>
	<g clip-path="url(#SVGID_11_)">
		<path fill="#FFFFFF" d="M175.727,453.676c0,0,260.84-120.44,285.728-131.94c14.768-6.817,21.511-2.049,24.553,2.96
			l-304.84,140.758L175.727,453.676z"/>
		<path fill="#BFC1C6" d="M488.435,331.674L184.25,472.136l-3.083-6.683l304.84-140.758
			C488.087,328.128,488.435,331.674,488.435,331.674z"/>
	</g>
</g>
<path fill="#BFC1C6" d="M324.482,156.217h10.043V94.913c0,0-0.308-0.008-0.905,0.008c-0.254,0.007-0.558,0.018-0.913,0.037
	c-8.68,0.46-47.525,5.272-97.554,53.377l-0.565,0.589v119.34c0,0-0.311,20.632-14.856,25.896l94.538,59.422V226.631l-28.362-24.311
	l21.61-6.752l27.012,18.908l-0.005-44.225l-60.77,22.615c0,0-17.098-11.351-20.028-29.358l68.563-11.232L324.482,156.217z"/>
<path fill="#808285" d="M344.573,156.217h-10.042V94.913c0,0,0.307-0.008,0.905,0.008c0.251,0.007,0.557,0.018,0.912,0.037
	c8.68,0.46,47.525,5.272,97.552,53.377l0.565,0.589v119.34c0,0,0.312,20.632,14.858,25.896l-94.54,59.422V226.631l28.361-24.311
	l-21.609-6.752l-27.01,18.908l0.005-44.225l60.769,22.615c0,0,17.098-11.351,20.027-29.358l-68.565-11.232L344.573,156.217z"/>
<path fill="#333333" d="M346.992,143.738l71.705,11.233c-0.676,3.984-2.084,7.642-3.86,10.924c0.188-0.783,0.359-1.576,0.49-2.387
	l-68.565-11.232l-2.188,3.94h-20.091l-2.19-3.94l-68.563,11.232c0.254,1.552,0.618,3.049,1.059,4.499
	c-2.346-3.8-4.259-8.172-5.084-13.036l71.701-11.233C321.404,143.738,331.956,142.314,346.992,143.738z"/>
<path fill="#808285" d="M334.526,38.886v41.577h0.008v0.045c8.302,0.441,44.226,4.892,91.129,47.4
	C418.371,77.7,380.413,39.356,334.526,38.886z"/>
<path fill="#BFC1C6" d="M334.526,38.886v41.577h-0.009v0.045c-8.303,0.441-44.225,4.892-91.13,47.4
	C250.679,77.7,288.641,39.356,334.526,38.886z"/>
<path opacity="0.5" fill="#FFFFFF" d="M245.427,274.505v-119.34l0.565-0.59c39.754-38.225,72.429-49.106,88.534-52.197v-7.466
	c0,0-0.308-0.008-0.905,0.008c-0.254,0.007-0.558,0.018-0.913,0.037c-8.68,0.46-47.525,5.272-97.554,53.377l-0.565,0.589v119.34
	c0,0-0.311,20.632-14.856,25.896l10.836,6.24C245.115,295.137,245.427,274.505,245.427,274.505z"/>
<path fill="#333333" d="M423.63,274.505c0,0,0.31,20.632,14.855,25.896l10.839-6.24c-14.547-5.264-14.858-25.896-14.858-25.896
	v-119.34l-0.565-0.589c-3.672-3.532-7.274-6.802-10.819-9.882L423.63,274.505z"/>
<polygon opacity="0.5" fill="#FFFFFF" points="365.424,217.512 354.784,226.631 354.784,353.583 365.424,346.896 "/>
<path opacity="0.5" fill="#FFFFFF" d="M334.526,49.354V38.886c-45.885,0.47-83.847,38.814-91.139,89.022
	c6.102-5.53,12.015-10.404,17.708-14.72C273.774,79.244,301.396,54.366,334.526,49.354z"/>
<g>
	<g>
		<g>
			<g>
				<path fill="#132328" d="M572.688,431.979c-140.318,101.947-330.323,101.947-470.641,0c0-39.693,0-79.386,0-119.079
					c140.318,101.947,330.322,101.947,470.641,0C572.688,352.594,572.688,392.286,572.688,431.979z"/>
			</g>
		</g>
		<g>
			<path fill="#F5F5F5" d="M185.13,455.386c0.002,5.438-2.645,7.104-7.885,4.824c-8.938-3.902-17.767-8.146-26.466-12.732
				c-4.955-2.62-7.399-6.729-7.401-12.168c0-24.334,0-48.667,0-73c0.002-5.49,2.447-6.845,7.401-4.225
				c8.699,4.586,17.527,8.83,26.466,12.732c5.24,2.279,7.887,6.078,7.885,11.568c0,6.969,0,13.938,0,20.907
				c-4.298-1.768-8.572-3.613-12.82-5.536c0-5.883,0-11.767,0-17.649c-5.524-2.501-11.004-5.134-16.437-7.899
				c0,22.143,0,44.285,0,66.428c5.432,2.766,10.912,5.398,16.437,7.899c0-6.265,0-12.528,0-18.793
				c4.248,1.923,8.522,3.769,12.82,5.536C185.13,440.647,185.13,448.017,185.13,455.386z"/>
			<path fill="#F5F5F5" d="M239.952,392.709c-3.962,11.458-7.913,22.855-11.85,34.191c-1.446,3.287-3.402,8.949-5.866,16.97
				c0,10.947,0,21.895,0,32.841c-4.454-1.336-8.891-2.752-13.307-4.247c0-10.947,0-21.894,0-32.841
				c-0.601-3.176-1.463-6.611-2.589-10.313c-1.989-6.363-3.054-9.83-3.204-10.379c-3.854-13.823-7.693-27.707-11.514-41.652
				c-0.038-0.05-0.038-0.223,0-0.516c4.469,1.747,8.963,3.411,13.479,4.991c3.504,14.174,7.021,28.297,10.552,42.37
				c3.51-11.828,7.033-23.705,10.566-35.633c4.56,1.316,9.138,2.551,13.732,3.702C239.952,392.463,239.952,392.634,239.952,392.709z
				"/>
			<path fill="#F5F5F5" d="M293.881,483.066c0.001,5.439-2.792,7.885-8.363,7.166c-12.171-1.587-24.286-3.734-36.302-6.442
				c0-29.798,0-59.595,0-89.393c11.939,2.691,23.975,4.828,36.068,6.411c5.414,0.703,8.13,3.717,8.129,9.207
				c0,7.673,0,15.346,0,23.019c0,3.045-0.976,5.305-2.926,6.75c-0.272,0.19-2.653,1.396-7.131,3.496
				c4.633,3.403,7.092,5.197,7.364,5.498c2.105,2.035,3.16,4.605,3.16,7.728C293.881,465.359,293.881,474.213,293.881,483.066z
				 M279.798,432.954c0-7.216,0-14.432,0-21.648c-5.697-0.826-11.38-1.775-17.046-2.849c0,8.739,0,17.479,0,26.218
				c3.48,0.658,6.968,1.271,10.46,1.837C275.405,435.345,277.601,434.158,279.798,432.954z M280.147,478.244
				c0-8.492,0-16.983,0-25.476c-2.236-1.769-4.47-3.556-6.702-5.362c-3.571-0.577-7.136-1.202-10.694-1.876
				c0,9.938,0,19.877,0,29.814C268.533,476.44,274.333,477.406,280.147,478.244z"/>
			<path fill="#F5F5F5" d="M348.827,493.433c-12.719,0.363-25.453,0.121-38.154-0.726c0-29.798,0-59.595,0-89.393
				c12.584,0.839,25.2,1.084,37.802,0.735c0,3.941,0,7.883,0,11.825c-8.017,0.222-16.038,0.203-24.053-0.056
				c0,8.702,0,17.403,0,26.104c6.898,0.223,13.801,0.268,20.701,0.135c0,3.864,0,7.729,0,11.594
				c-6.9,0.133-13.803,0.088-20.701-0.135c0,9.35,0,18.699,0,28.048c8.133,0.263,16.272,0.278,24.406,0.046
				C348.827,485.552,348.827,489.492,348.827,493.433z"/>
			<path fill="#F5F5F5" d="M411.038,486.773c-4.719,0.882-9.45,1.679-14.191,2.39c-5.014-13.09-10.039-26.274-15.073-39.555
				c0-2.686,0-5.371,0-8.056c4.487-0.5,8.968-1.076,13.439-1.728c0-9.443,0-18.886,0-28.329c-5.735,0.836-11.485,1.547-17.245,2.133
				c0,25.969,0,51.938,0,77.908c-4.568,0.465-9.143,0.851-13.721,1.157c0-29.797,0-59.595,0-89.393
				c12.151-0.815,24.274-2.185,36.328-4.108c5.473-0.88,8.197,1.341,8.197,6.831c0,10.833,0,21.667,0,32.5
				c0,3.769-1.296,6.448-3.892,7.997c-1.395,0.808-4.343,1.598-8.851,2.266C401.045,461.545,406.049,474.207,411.038,486.773z"/>
			<path fill="#E86D1F" d="M468.009,463.544c-0.001,5.439-2.656,9.107-8.014,10.838c-8.884,2.856-17.846,5.396-26.868,7.615
				c-5.403,1.322-8.121-0.819-8.12-6.259c0.001-7.102,0.001-14.203,0-21.305c4.5-1.008,8.986-2.095,13.457-3.26
				c0,6.073,0,12.146,0,18.22c5.464-1.425,10.904-2.966,16.317-4.626c0-5.845,0-11.689,0-17.535
				c-8.877-5.732-17.827-11.781-26.834-18.146c-1.959-1.413-2.94-3.577-2.94-6.47c0.001-6.626,0.001-13.252,0-19.879
				c-0.001-5.489,2.717-8.812,8.12-10.134c9.022-2.221,17.984-4.759,26.868-7.615c5.357-1.73,8.013,0.027,8.014,5.442
				c0,6.664,0,13.328,0,19.991c-4.39,1.516-8.8,2.951-13.228,4.309c0-5.617,0-11.234,0-16.852
				c-5.413,1.66-10.854,3.201-16.317,4.626c0,5.389,0,10.776,0,16.165c8.96,6.08,17.857,11.844,26.674,17.292
				c1.917,1.182,2.871,3.267,2.871,6.276C468.009,449.341,468.009,456.442,468.009,463.544z"/>
			<path fill="#E86D1F" d="M526.122,438.16c-0.002,5.438-2.534,9.55-7.661,12.159c-8.753,4.443-17.631,8.544-26.615,12.303
				c-5.12,2.135-7.703,0.401-7.701-5.038c0-24.333,0-48.667,0-73c-0.002-5.489,2.581-9.22,7.701-11.354
				c8.984-3.759,17.862-7.859,26.615-12.303c5.127-2.609,7.659-1.257,7.661,4.233c0,6.969,0,13.938,0,20.907
				c-4.143,2.217-8.316,4.355-12.517,6.417c0-5.883,0-11.767,0-17.649c-5.464,2.681-10.974,5.229-16.526,7.646
				c0,22.143,0,44.285,0,66.428c5.553-2.417,11.063-4.965,16.526-7.646c0-6.265,0-12.528,0-18.793c4.2-2.062,8.374-4.2,12.517-6.417
				C526.122,423.422,526.122,430.791,526.122,438.16z"/>
		</g>
	</g>
</g>
</svg>
